# xmcd CD database file
# Copyright (C) 1997 Ti Kan
#
# Track frame offsets:
#  183
#  19983
#  37715
#  52103
#  73610
#  94963
#  106810
#  127153
#  143573
#  167573
#  184573
#  207723
#
# Disc length: 2905 seconds
#
# Revision: 2
# Processed by: cddbd v1.4PL0 Copyright (c) Steve Scherf et al.
# Submitted via: Gronk 1.4
#
DISCID=a90b570c
DTITLE=Johnny Shines - Too Wet To Plow
DYEAR=1900
DGENRE=blues
TTITLE0=Too Wet To Plow
TTITLE1=Travelling Back Home
TTITLE2=Hot Tomale
TTITLE3=Moanin' The Blues
TTITLE4=Red Sun
TTITLE5=Winding Mind
TTITLE6=You Better Turn Around
TTITLE7=The Wind Is Blowin'
TTITLE8=Trouble's All I See
TTITLE9=30 Days In Jail
TTITLE10=Pay Day Woman
TTITLE11=Epilog
EXTD=Tomato 2696362\n\nJohnny Shines -  guitar, vocal\nLouisiana Red:  gui
EXTD=tar, vocal\nSugar Blue:  harmonica\nRon Rault:  bass\n\nSubmitted 7/
EXTD=3/97\n[Jmccoy@efn.org]
EXTT0=
EXTT1=
EXTT2=
EXTT3=
EXTT4=
EXTT5=
EXTT6=
EXTT7=
EXTT8=
EXTT9=
EXTT10=
EXTT11=
PLAYORDER=
